<svg xmlns="http://www.w3.org/2000/svg" viewBox="0 0 316.07 318.17"><defs><style>.cls-1,.cls-8{fill:#00aeef;}.cls-1{stroke:#231f20;stroke-width:9.62px;}.cls-1,.cls-7,.cls-9{stroke-miterlimit:10;}.cls-1,.cls-3,.cls-4{fill-rule:evenodd;}.cls-2{opacity:0.6;}.cls-3{fill:#f1f2f2;}.cls-4,.cls-5,.cls-6{fill:#231f20;}.cls-6{stroke:#fff200;stroke-width:0.07px;}.cls-7{fill:#f0dbc4;stroke-width:4.37px;}.cls-7,.cls-9{stroke:#00aeef;}.cls-9{fill:none;stroke-width:1.87px;}</style></defs><title>Asset 1</title><g id="Layer_2" data-name="Layer 2"><g id="Layer_1-2" data-name="Layer 1"><path class="cls-1" d="M158.22,4.81c84.51,0,153,69.08,153,154.27s-68.54,154.28-153,154.28-153-69.09-153-154.28S73.7,4.81,158.22,4.81Z"/><g id="Starburst" class="cls-2"><path class="cls-3" d="M149.52,171.06,58.65,43.91a60.21,60.21,0,0,1-11.89,7.6l101.5,119.58Z"/><path class="cls-3" d="M170.13,170.61l123-87.89-7.86-11.66L167.9,170.66Z"/><path class="cls-3" d="M152.33,171,89.45,20.66A60.31,60.31,0,0,1,77,28l74.33,143Z"/><path class="cls-3" d="M175.52,170.48l4.92-.12L304.2,118.6a59.76,59.76,0,0,1-1.55-13.49c0-.24,0-.48,0-.72Z"/><path class="cls-3" d="M154.67,171,126.94,11.06a59.54,59.54,0,0,1-8.36.6,59.43,59.43,0,0,1-6.36-.35L153.83,171Z"/><path class="cls-3" d="M204.31,169.72q8.48-.25,17-.57l89.82-15.58a60.32,60.32,0,0,1,3.27-12.86c-.3-.41-.6-.83-.9-1.25L196.54,169.94Z"/><path class="cls-3" d="M156.84,170.9,165.5,6.77A60.4,60.4,0,0,1,150.89,2.5L156,170.92Z"/><path class="cls-3" d="M8.48,172.75l-2.15-.11v.07Z"/><path class="cls-3" d="M159.09,170.85,204.33,11.77a60.45,60.45,0,0,1-14-4.57L158.23,170.87Z"/><path class="cls-3" d="M8.44,151.5l104.24,20.34,8-.15,4.77-.1-118-33.42c.35,2.8.64,5.61.85,8.43Q8.44,149,8.44,151.5Z"/><path class="cls-3" d="M161.65,170.8,240.29,27.36q-1.23-1.1-2.4-2.26t-2.12-2.23a60.57,60.57,0,0,1-8.05-3l-67.08,151Z"/><path class="cls-3" d="M139.86,171.27l-125-68.36-.24,1.15a50.68,50.68,0,0,1-4.43,11.48l126,55.81Z"/><path class="cls-3" d="M165,170.72,269.67,52.78q-2.1-1.75-4.05-3.69a59.58,59.58,0,0,1-5.84-6.79L163.63,170.75Z"/><path class="cls-3" d="M146.11,171.14,31.35,69.52c-2.37,4-4.92,7.89-7.58,11.71l120.44,90Z"/></g><path class="cls-4" d="M4,161.1C5.44,245,73.4,312.62,157,312.62S308.56,245,310,161.1Z"/><path class="cls-5" d="M98.31,131.71a1.5,1.5,0,0,1,.3.91,2.29,2.29,0,0,1-4.49,0,1.78,1.78,0,0,1,1.06-1.55v0a1.83,1.83,0,0,1-1.23-1.63,2.07,2.07,0,0,1,2.25-1.83,2.2,2.2,0,0,1,2.18,1.39l.06,0a2.55,2.55,0,0,1,1.46-.44,1.87,1.87,0,1,1,0,3.66,2.51,2.51,0,0,1-1.55-.51Z"/><polyline class="cls-5" points="160.51 22.47 165.64 22.47 162.37 29.91 170.2 27.24 170.2 35.26 162.37 33.4 162.37 36.19 160.66 36.19 160.37 36.19 158.66 36.19 158.66 33.4 150.82 35.26 150.82 27.24 158.66 29.91 155.38 22.47 160.51 22.47"/><path class="cls-6" d="M214.59,126.81a2.25,2.25,0,0,1-1,.49,2.36,2.36,0,0,1-2.79-1.24,1.81,1.81,0,0,1,1.52-2.27,2.64,2.64,0,0,1,2.13.39h.06a2,2,0,0,1,1.57-1.42,2.36,2.36,0,0,1,2.79,1.24,1.7,1.7,0,0,1-1,2.1l0,.05a1.92,1.92,0,0,1,.93,1,1.81,1.81,0,0,1-1.52,2.27,2.36,2.36,0,0,1-2.79-1.24,1.54,1.54,0,0,1,.16-1.36Z"/><path class="cls-5" d="M106.49,126.68a1.52,1.52,0,0,1,.3.91,2.29,2.29,0,0,1-4.49,0,1.79,1.79,0,0,1,1.06-1.55v0a1.83,1.83,0,0,1-1.23-1.63,2.07,2.07,0,0,1,2.24-1.83,2.2,2.2,0,0,1,2.18,1.39l.06,0a2.55,2.55,0,0,1,1.46-.44,1.87,1.87,0,1,1,0,3.66,2.51,2.51,0,0,1-1.55-.51Z"/><path class="cls-5" d="M214.59,126.81a2.25,2.25,0,0,1-1,.49,2.36,2.36,0,0,1-2.79-1.24,1.81,1.81,0,0,1,1.52-2.27,2.64,2.64,0,0,1,2.13.39h.06a2,2,0,0,1,1.57-1.42,2.36,2.36,0,0,1,2.79,1.24,1.7,1.7,0,0,1-1,2.1l0,.05a1.92,1.92,0,0,1,.93,1,1.81,1.81,0,0,1-1.52,2.27,2.36,2.36,0,0,1-2.79-1.24,1.54,1.54,0,0,1,.16-1.36Z"/><path class="cls-5" d="M222.88,131.56a2.5,2.5,0,0,1-3.78-.75,1.8,1.8,0,0,1,1.52-2.27,2.62,2.62,0,0,1,2.12.39h.06a2,2,0,0,1,1.57-1.42,2.36,2.36,0,0,1,2.79,1.23,1.7,1.7,0,0,1-1,2.1l0,.05a1.91,1.91,0,0,1,.93,1,1.8,1.8,0,0,1-1.52,2.27,2.36,2.36,0,0,1-2.79-1.24,1.53,1.53,0,0,1,.16-1.36Z"/><ellipse class="cls-5" cx="160.47" cy="43.01" rx="5.67" ry="4.63"/><path class="cls-5" d="M160.09,80.61c-3.57,0-6.48,2.36-6.48,5.28v15.17h12.95V85.89C166.56,83,163.66,80.61,160.09,80.61Z"/><path class="cls-5" d="M125.64,161.84c6.78-21.6,19.2-39.16,34.87-51,15.67,11.83,28.56,29.4,35.87,51h57.05V140.66c-1.85-1.74-2.85,14.53-2.85,14.53.43,2.09-4,3.14-4,.12v-8l-3.42-2.09v-6.74h2.28l-5.56-4.65s-1.08-12.3-3.53-19.7l.15-.12a6.52,6.52,0,0,0,1.21,0,2.58,2.58,0,0,0,2.15-2.35,2.77,2.77,0,0,0-3-2.45,5.56,5.56,0,0,0-1.4.21,2.66,2.66,0,0,0,1.49-2.08,3.07,3.07,0,0,0-6,0,2.32,2.32,0,0,0,1.19,2l.12.1a3.56,3.56,0,0,0-1.43-.3,2.51,2.51,0,1,0,0,4.91,4,4,0,0,0,.48,0l.15.13c-.4,2-2.93,14.68-2.8,20.78.13,6.31-7.69,3-5.84.46l-4-1.86c-2.57,2.9-6.84-1-4.7-2.79l-4-2.79c-1.71,2.21-3.57.93-4.42-.35v-8.6h4.42v-5.46h-5.7c.42-2.17-.26-9.28-2.18-13.61l0-.17a5.87,5.87,0,0,0,1.1,0,2.58,2.58,0,0,0,2.15-2.35,2.78,2.78,0,0,0-3-2.45,5.48,5.48,0,0,0-1.4.21A2.67,2.67,0,0,0,202.54,93a3.07,3.07,0,0,0-6,0,2.34,2.34,0,0,0,1.18,2l.12.09a3.57,3.57,0,0,0-1.43-.3,2.51,2.51,0,1,0,0,4.91l.43,0v.11a25.54,25.54,0,0,0-2.39,11.93H184v-5.81h3.27v-2.56h-8V82.79l3.42-2V68h-2c-.19-.42-.35-.67-.56-1.09l.12-.12,1.63-1.33a1.29,1.29,0,0,0,0-2.09,2.12,2.12,0,0,0-2.57,0l-.71.59-.16.13-1.69-2.41.17-.05,1.45-1.18a1.3,1.3,0,0,0,0-2.09,2.11,2.11,0,0,0-2.57,0l-1,.79-.09.11c0-.06-1.31-1.5-1.88-2.09l.1-.1,1.15-.94a1.29,1.29,0,0,0,0-2.09,2.11,2.11,0,0,0-2.56,0l-1,.81-.12.09c-.75-.67-1.52-1.32-2.3-1.95l.11-.18,1.12-.91a1.29,1.29,0,0,0,0-2.09,2.11,2.11,0,0,0-2.57,0l-1.27,1-.1.07c-.74-.52-1.6-1.09-2.29-1.53H157.8q-1.09.69-2.23,1.49h-.26L154.2,50a2.12,2.12,0,0,0-2.57,0,1.3,1.3,0,0,0,0,2.09l1.06.86,0,.15c-.72.59-1.45,1.2-2.16,1.84l-.21,0-1-.81a2.11,2.11,0,0,0-2.56,0,1.29,1.29,0,0,0,0,2.09l1.2,1,.07.16q-.9.91-1.76,1.88l-.23,0-.94-.77a2.11,2.11,0,0,0-2.56,0,1.3,1.3,0,0,0,0,2.09l1.61,1.31-.1.11q-.76,1-1.46,2l-.14.16-.85-.7a2.12,2.12,0,0,0-2.57,0,1.3,1.3,0,0,0,0,2.09l1.67,1.37,0,.19c-.17.32-.33.65-.49,1h-2V80.81l3.42,2v20.57h-8v2.56H137v5.81h-10.4a37.14,37.14,0,0,0-2.36-12l.12-.07a4.92,4.92,0,0,0,.91,0,2.58,2.58,0,0,0,2.15-2.35,2.78,2.78,0,0,0-3-2.46,5.42,5.42,0,0,0-1.4.21A2.67,2.67,0,0,0,124.49,93a3.07,3.07,0,0,0-6,0,2.33,2.33,0,0,0,1.19,2l.12.1a3.55,3.55,0,0,0-1.43-.3,2.51,2.51,0,1,0,0,4.91h.28l.22.12c-2,4.32-2.65,11.52-2.22,13.71h-5.7v5.46h4.42v8.6c-.85,1.28-2.71,2.56-4.42.35l-4,2.79c2.14,1.74-2.14,5.69-4.7,2.79l-4,1.86c1.85,2.56-6,5.85-5.84-.46.13-5.91-2.24-18-2.76-20.56l.12-.23h.14a5.6,5.6,0,0,0,1.07,0,2.58,2.58,0,0,0,2.15-2.35,2.78,2.78,0,0,0-3-2.46,5.53,5.53,0,0,0-1.4.21,2.67,2.67,0,0,0,1.49-2.08,3.07,3.07,0,0,0-6,0,2.33,2.33,0,0,0,1.19,2l.12.09a3.56,3.56,0,0,0-1.43-.29A2.51,2.51,0,1,0,84,114l.35,0,.14,0,.12.14c-2.43,7.4-3.51,19.66-3.51,19.66l-5.56,4.65h2.28v6.74l-3.42,2.09v8c0,3-4.42,2-4-.12,0,0-1-16.27-2.85-14.53v21.18h58.05ZM162.39,54.9c5.81,2,10.3,10.77,9.1,15h-8.12l-1-4Zm5.15,30.25v17.48H152.63V85.14c0-3.36,3.34-6.08,7.46-6.08S167.54,81.78,167.54,85.14Zm-8.9-30.25,0,11-1,4h-8.12C148.34,65.67,153.07,56.35,158.64,54.9Z"/><polyline class="cls-5" points="160.09 32.21 163.12 32.21 161.18 36.61 165.81 35.03 165.81 39.77 161.18 38.67 161.18 40.32 160.17 40.32 160 40.32 158.99 40.32 158.99 38.67 154.36 39.77 154.36 35.03 158.99 36.61 157.06 32.21 160.09 32.21"/><ellipse class="cls-5" cx="160.06" cy="44.35" rx="3.35" ry="2.73"/><path class="cls-4" d="M157.75.07C70.64.07,0,71.28,0,159.08s70.64,159,157.75,159,157.75-71.21,157.75-159S244.85.07,157.75.07Zm-.29,308.7c-81.94,0-148.38-67-148.38-149.57S75.52,9.62,157.45,9.62s148.38,67,148.38,149.57S239.39,308.77,157.45,308.77Z"/><path class="cls-7" d="M117.14,216.44H94.91l-6.83,15.15H77.53l28.57-63.81,28.57,63.81H124.14Zm-3.87-8.81L106.11,192l-7.16,15.65Z"/><path class="cls-7" d="M159.3,232.91a19.52,19.52,0,0,1-7.53-1.48,18.07,18.07,0,0,1-6.3-4.36,19.56,19.56,0,0,1-4.16-6.38,20,20,0,0,1-1.44-7.53H150a9.81,9.81,0,0,0,.74,3.83,9.71,9.71,0,0,0,2,3,9.11,9.11,0,0,0,2.92,2,9,9,0,0,0,3.66.74,14.66,14.66,0,0,0,2.92-.33,9.64,9.64,0,0,0,3-1.19,7.34,7.34,0,0,0,2.43-2.43,7.44,7.44,0,0,0,1-4q0-.66-.12-1.89a6.46,6.46,0,0,0-1.15-2.8,15.28,15.28,0,0,0-3.33-3.38,29.51,29.51,0,0,0-6.59-3.62q-2.47-1.07-5.15-2.55A26.13,26.13,0,0,1,147.4,197a18.33,18.33,0,0,1-3.79-4.86,13.88,13.88,0,0,1-1.61-6.42,15.74,15.74,0,0,1,1.07-6.18,15.15,15.15,0,0,1,3.46-5.27,16.61,16.61,0,0,1,5.68-3.83,18.17,18.17,0,0,1,7-1.36,17.14,17.14,0,0,1,12.19,5.06,17.93,17.93,0,0,1,3.66,5.48,16.57,16.57,0,0,1,1.36,6.67H166.3a7.07,7.07,0,0,0-.54-2.76,6.58,6.58,0,0,0-1.52-2.22A8,8,0,0,0,162,179.8a6.64,6.64,0,0,0-2.76-.58,7.07,7.07,0,0,0-5.35,2.06q-1.4,1.23-1.4,4.2a8.53,8.53,0,0,0,.12,1.28,4.63,4.63,0,0,0,.95,1.89,12.23,12.23,0,0,0,2.63,2.43,31.78,31.78,0,0,0,5.19,2.88,61.26,61.26,0,0,1,8.52,4.57,26.12,26.12,0,0,1,5.52,4.73,15.4,15.4,0,0,1,3,5.31,20.4,20.4,0,0,1,.91,6.22,17.66,17.66,0,0,1-2.18,8.77,17.62,17.62,0,0,1-2.06,3,15.3,15.3,0,0,1-2.18,2.1Q167.61,232.91,159.3,232.91Z"/><path class="cls-7" d="M225.58,231.59l-16.47-23.22a21.58,21.58,0,0,0-3.09,2.06,15.37,15.37,0,0,0-2.68,2.8,8.41,8.41,0,0,0-1.15,2.55,21.72,21.72,0,0,0-.62,3.09,31.1,31.1,0,0,0-.25,3.13q0,1.52,0,2.51v7.08h-10V170.41h22.48a26,26,0,0,1,5.48,1,20,20,0,0,1,4.2,1.77,17,17,0,0,1,3,2.22,19.4,19.4,0,0,1,2.1,2.26,16.24,16.24,0,0,1,2.88,6.55,17.9,17.9,0,0,1-.16,7.62,15,15,0,0,1-2,4.86,16.83,16.83,0,0,1-3.09,3.54,20.18,20.18,0,0,1-3.66,2.51,32.9,32.9,0,0,1-3.91,1.77l19.19,27.09Zm-24.29-30.22a30.45,30.45,0,0,1,5.6-3.17q2.8-1.19,5.35-2.1,2.3-.82,3.91-1.48a12.91,12.91,0,0,0,2.64-1.4,6.69,6.69,0,0,0,1.65-1.65,6.89,6.89,0,0,0,.95-2.22,10.08,10.08,0,0,0,.29-2.84,5.09,5.09,0,0,0-1.11-3q-2-2.72-7.25-3.13h-12v21Z"/><path class="cls-5" d="M117.14,216.44H94.91l-6.83,15.15H77.53l28.57-63.81,28.57,63.81H124.14Zm-3.87-8.81L106.11,192l-7.16,15.65Z"/><path class="cls-5" d="M159.3,232.91a19.52,19.52,0,0,1-7.53-1.48,18.07,18.07,0,0,1-6.3-4.36,19.56,19.56,0,0,1-4.16-6.38,20,20,0,0,1-1.44-7.53H150a9.81,9.81,0,0,0,.74,3.83,9.71,9.71,0,0,0,2,3,9.11,9.11,0,0,0,2.92,2,9,9,0,0,0,3.66.74,14.66,14.66,0,0,0,2.92-.33,9.64,9.64,0,0,0,3-1.19,7.34,7.34,0,0,0,2.43-2.43,7.44,7.44,0,0,0,1-4q0-.66-.12-1.89a6.46,6.46,0,0,0-1.15-2.8,15.28,15.28,0,0,0-3.33-3.38,29.51,29.51,0,0,0-6.59-3.62q-2.47-1.07-5.15-2.55A26.13,26.13,0,0,1,147.4,197a18.33,18.33,0,0,1-3.79-4.86,13.88,13.88,0,0,1-1.61-6.42,15.74,15.74,0,0,1,1.07-6.18,15.15,15.15,0,0,1,3.46-5.27,16.61,16.61,0,0,1,5.68-3.83,18.17,18.17,0,0,1,7-1.36,17.14,17.14,0,0,1,12.19,5.06,17.93,17.93,0,0,1,3.66,5.48,16.57,16.57,0,0,1,1.36,6.67H166.3a7.07,7.07,0,0,0-.54-2.76,6.58,6.58,0,0,0-1.52-2.22A8,8,0,0,0,162,179.8a6.64,6.64,0,0,0-2.76-.58,7.07,7.07,0,0,0-5.35,2.06q-1.4,1.23-1.4,4.2a8.53,8.53,0,0,0,.12,1.28,4.63,4.63,0,0,0,.95,1.89,12.23,12.23,0,0,0,2.63,2.43,31.78,31.78,0,0,0,5.19,2.88,61.26,61.26,0,0,1,8.52,4.57,26.12,26.12,0,0,1,5.52,4.73,15.4,15.4,0,0,1,3,5.31,20.4,20.4,0,0,1,.91,6.22,17.66,17.66,0,0,1-2.18,8.77,17.62,17.62,0,0,1-2.06,3,15.3,15.3,0,0,1-2.18,2.1Q167.61,232.91,159.3,232.91Z"/><path class="cls-5" d="M225.58,231.59l-16.47-23.22a21.58,21.58,0,0,0-3.09,2.06,15.37,15.37,0,0,0-2.68,2.8,8.41,8.41,0,0,0-1.15,2.55,21.72,21.72,0,0,0-.62,3.09,31.1,31.1,0,0,0-.25,3.13q0,1.52,0,2.51v7.08h-10V170.41h22.48a26,26,0,0,1,5.48,1,20,20,0,0,1,4.2,1.77,17,17,0,0,1,3,2.22,19.4,19.4,0,0,1,2.1,2.26,16.24,16.24,0,0,1,2.88,6.55,17.9,17.9,0,0,1-.16,7.62,15,15,0,0,1-2,4.86,16.83,16.83,0,0,1-3.09,3.54,20.18,20.18,0,0,1-3.66,2.51,32.9,32.9,0,0,1-3.91,1.77l19.19,27.09Zm-24.29-30.22a30.45,30.45,0,0,1,5.6-3.17q2.8-1.19,5.35-2.1,2.3-.82,3.91-1.48a12.91,12.91,0,0,0,2.64-1.4,6.69,6.69,0,0,0,1.65-1.65,6.89,6.89,0,0,0,.95-2.22,10.08,10.08,0,0,0,.29-2.84,5.09,5.09,0,0,0-1.11-3q-2-2.72-7.25-3.13h-12v21Z"/><path class="cls-8" d="M56,255.6l-1.17,2.59H50.93l7.78-17.33.38-.85.4.86,7.79,17.32H63.39l-1.16-2.6-.06-.12H56Zm4.54-3.77-1.42-3.18-1.43,3.18Z"/><path class="cls-8" d="M79.64,248.3a6.36,6.36,0,0,1-5.28,9.9H68V240h4.54a4.56,4.56,0,0,1,4.54,4.54,4.53,4.53,0,0,1-.23,1.42A6.43,6.43,0,0,1,79.64,248.3Zm-7.1-2.83a.91.91,0,1,0,0-1.82h-.9v1.82Zm0,3.64h-.9v5.45h2.72a2.64,2.64,0,0,0,1.93-.79,2.73,2.73,0,0,0-1.93-4.65Z"/><path class="cls-8" d="M93,240v3.63H85.74v3.64h5.45v3.63H85.74v3.63H93v3.64H82.1V240Z"/><path class="cls-8" d="M94.64,252.74V240H101a6.35,6.35,0,0,1,5.22,10,6.29,6.29,0,0,1-2.95,2.29l4.1,5.88h-4.44l-4.65-6.65v6.65H94.64Zm6.36-3.63a2.73,2.73,0,0,0,0-5.46H98.28v5.46Z"/><path class="cls-8" d="M119.08,242.69a9.09,9.09,0,0,1-6.42,15.5H109V240h3.64A8.75,8.75,0,0,1,119.08,242.69ZM116.51,253a5.46,5.46,0,0,0-3.84-9.31v10.9A5.25,5.25,0,0,0,116.51,253Z"/><path class="cls-8" d="M133.89,240v3.63h-7.26v3.64h5.45v3.63h-5.45v3.63h7.26v3.64H123V240Z"/><path class="cls-8" d="M146.42,240v3.63h-7.26v3.64h5.45v3.63h-5.45v3.63h7.26v3.64h-10.9V240Z"/><path class="cls-8" d="M159,250V240h3.64V258.2l-10.9-9.95v9.95h-3.64V240Z"/><path class="cls-8" d="M174.34,250.45a7.77,7.77,0,0,1-1.74-.89A6.55,6.55,0,0,1,171,248a4.08,4.08,0,0,1-.73-2.49,5.45,5.45,0,0,1,10.9,0h-3.63a1.82,1.82,0,0,0-3.63,0,1.64,1.64,0,0,0,.78,1.47,5,5,0,0,0,1.19.62l1,.32a7.45,7.45,0,0,1,1.79.82,6.34,6.34,0,0,1,1.7,1.55,4,4,0,0,1,.76,2.5,5.45,5.45,0,0,1-10.9,0h3.64a1.82,1.82,0,0,0,3.63,0,1.41,1.41,0,0,0-.92-1.49l-1.25-.46Z"/><path class="cls-8" d="M190.8,240h4.54v3.63H190.8V258.2h-3.64V243.65h-4.54V240h8.19Z"/><path class="cls-8" d="M211.69,240v10.9a7.27,7.27,0,0,1-14.55,0V240h3.64v10.9a3.63,3.63,0,0,0,7.26,0V240Z"/><path class="cls-8" d="M223.45,242.69A9.09,9.09,0,0,1,217,258.2h-3.64V240H217A8.75,8.75,0,0,1,223.45,242.69ZM220.88,253a5.46,5.46,0,0,0-3.84-9.31v10.9A5.25,5.25,0,0,0,220.88,253Z"/><path class="cls-8" d="M238.25,240v3.63H231v3.64h5.45v3.63H231v3.63h7.26v3.64h-10.9V240Z"/><path class="cls-8" d="M250.79,250V240h3.64V258.2l-10.9-9.95v9.95h-3.64V240Z"/><path class="cls-8" d="M264.6,240h4.54v3.63H264.6V258.2H261V243.65h-4.54V240h8.19Z"/><path class="cls-8" d="M126.09,275.44V262.72h6.36a6.35,6.35,0,0,1,5.22,10,6.3,6.3,0,0,1-2.95,2.29l4.1,5.88h-4.44l-4.65-6.65v6.65h-3.64Zm6.36-3.63a2.73,2.73,0,0,0,0-5.46h-2.72v5.46Z"/><path class="cls-8" d="M145.27,278.31l-1.17,2.59h-3.88L148,263.57l.38-.85.4.86,7.79,17.32h-3.89l-1.16-2.6-.06-.12h-6.13Zm4.54-3.77-1.42-3.18L147,274.54Z"/><path class="cls-8" d="M167.35,265.39a9.09,9.09,0,0,1-6.42,15.5h-3.64V262.72h3.64A8.75,8.75,0,0,1,167.35,265.39Zm-2.57,10.27a5.46,5.46,0,0,0-3.84-9.31v10.9A5.25,5.25,0,0,0,164.78,275.66Z"/><path class="cls-8" d="M171.25,262.72h3.64V280.9h-3.64Z"/><path class="cls-8" d="M192.31,265.39a9,9,0,1,1-6.42-2.67A8.75,8.75,0,0,1,192.31,265.39ZM182,268a5.42,5.42,0,1,0,3.85-1.61A5.27,5.27,0,0,0,182,268Z"/><line class="cls-9" x1="305.83" y1="173.14" x2="240.55" y2="173.14"/><line class="cls-9" x1="289.84" y1="178.92" x2="240.55" y2="178.92"/><line class="cls-9" x1="274.6" y1="185.14" x2="240.55" y2="185.14"/><line class="cls-9" x1="9.65" y1="173.14" x2="74.94" y2="173.14"/><line class="cls-9" x1="25.65" y1="178.92" x2="74.94" y2="178.92"/><line class="cls-9" x1="40.89" y1="185.14" x2="74.94" y2="185.14"/></g></g></svg>